<svg width="98" height="165" viewBox="0 0 98 165" fill="none" xmlns="http://www.w3.org/2000/svg">
<path d="M2 6.16478C2 4.71621 3.49205 3.7481 4.81491 4.33833L94.8149 44.4939C95.5358 44.8156 96 45.5311 96 46.3204V127.554C96 128.401 95.4655 129.157 94.6661 129.44L4.66613 161.231C3.3648 161.69 2 160.725 2 159.345V108.45C2 108.059 2.11492 107.676 2.33051 107.349L15.9403 86.7173C17.2186 84.7795 17.2643 82.2781 16.0577 80.2948L2.29139 57.6683C2.1008 57.3551 2 56.9955 2 56.6288V6.16478Z" fill="white"/>
<path d="M2 6.16478C2 4.71621 3.49205 3.7481 4.81491 4.33833L94.8149 44.4939C95.5358 44.8156 96 45.5311 96 46.3204V127.554C96 128.401 95.4655 129.157 94.6661 129.44L4.66613 161.231C3.3648 161.69 2 160.725 2 159.345V108.45C2 108.059 2.11492 107.676 2.33051 107.349L15.9403 86.7173C17.2186 84.7795 17.2643 82.2781 16.0577 80.2948L2.29139 57.6683C2.1008 57.3551 2 56.9955 2 56.6288V6.16478Z" stroke="black" stroke-width="4"/>
<path d="M2 6.16478C2 4.71621 3.49205 3.7481 4.81491 4.33833L94.8149 44.4939C95.5358 44.8156 96 45.5311 96 46.3204V127.554C96 128.401 95.4655 129.157 94.6661 129.44L4.66613 161.231C3.3648 161.69 2 160.725 2 159.345V108.45C2 108.059 2.11492 107.676 2.33051 107.349L15.9403 86.7173C17.2186 84.7795 17.2643 82.2781 16.0577 80.2948L2.29139 57.6683C2.1008 57.3551 2 56.9955 2 56.6288V6.16478Z" stroke="url(#paint0_linear_769_381)" stroke-width="4"/>
<path d="M53.3492 108L57.3542 97.5H58.8842L62.8892 108H60.9242L60.1142 105.69H56.0792L55.2692 108H53.3492ZM56.6492 104.085H59.5592L58.1192 99.99L56.6492 104.085ZM64.858 108V97.5H66.583V106.395H72.058V108H64.858ZM78.0477 108.195C76.7377 108.195 75.7377 107.85 75.0477 107.16C74.3577 106.46 74.0127 105.415 74.0127 104.025V97.5H75.7677V103.935C75.7677 104.835 75.9677 105.49 76.3677 105.9C76.7777 106.3 77.3377 106.5 78.0477 106.5C78.7577 106.5 79.3127 106.3 79.7127 105.9C80.1127 105.49 80.3127 104.835 80.3127 103.935V97.5H82.0527V104.025C82.0527 105.415 81.7127 106.46 81.0327 107.16C80.3527 107.85 79.3577 108.195 78.0477 108.195Z" fill="url(#paint1_linear_769_381)"/>
<defs>
<linearGradient id="paint0_linear_769_381" x1="75.5763" y1="11.6653" x2="-5.24439" y2="169.119" gradientUnits="userSpaceOnUse">
<stop stop-color="#F96CB8"/>
<stop offset="1" stop-color="#A5EDFD"/>
</linearGradient>
<linearGradient id="paint1_linear_769_381" x1="74.5" y1="87.3214" x2="42.9585" y2="147.178" gradientUnits="userSpaceOnUse">
<stop stop-color="#F96CB8"/>
<stop offset="1" stop-color="#A5EDFD"/>
</linearGradient>
</defs>
</svg>



