<svg width="47" height="112" viewBox="0 0 47 112" fill="none" xmlns="http://www.w3.org/2000/svg">
<path d="M2 7.03594C2 5.48449 3.68981 4.52381 5.02297 5.31736L44.023 28.5316C44.6288 28.8923 45 29.5452 45 30.2502V82.1906C45 82.9019 44.6222 83.5597 44.0077 83.9182L5.00774 106.668C3.67443 107.446 2 106.484 2 104.941V79.0794V39.5397V7.03594Z" fill="white"/>
<path d="M2 7.03594C2 5.48449 3.68981 4.52381 5.02297 5.31736L44.023 28.5316C44.6288 28.8923 45 29.5452 45 30.2502V82.1906C45 82.9019 44.6222 83.5597 44.0077 83.9182L5.00774 106.668C3.67443 107.446 2 106.484 2 104.941V79.0794V39.5397V7.03594Z" stroke="black" stroke-width="4"/>
<path d="M2 7.03594C2 5.48449 3.68981 4.52381 5.02297 5.31736L44.023 28.5316C44.6288 28.8923 45 29.5452 45 30.2502V82.1906C45 82.9019 44.6222 83.5597 44.0077 83.9182L5.00774 106.668C3.67443 107.446 2 106.484 2 104.941V79.0794V39.5397V7.03594Z" stroke="url(#paint0_linear_762_304)" stroke-width="4"/>
<path d="M11.172 78V71.232L9.708 72.192L9.024 71.1L11.472 69.588H12.456V78H11.172Z" fill="#747474"/>
<path d="M23.4781 43V32.5H25.2031L28.2181 37.54L31.1881 32.5H32.9431V43H31.1731V35.515L28.7131 39.79H27.6931L25.2181 35.515V43H23.4781ZM29.0477 62.195C27.7377 62.195 26.7377 61.85 26.0477 61.16C25.3577 60.46 25.0127 59.415 25.0127 58.025V51.5H26.7677V57.935C26.7677 58.835 26.9677 59.49 27.3677 59.9C27.7777 60.3 28.3377 60.5 29.0477 60.5C29.7577 60.5 30.3127 60.3 30.7127 59.9C31.1127 59.49 31.3127 58.835 31.3127 57.935V51.5H33.0527V58.025C33.0527 59.415 32.7127 60.46 32.0327 61.16C31.3527 61.85 30.3577 62.195 29.0477 62.195ZM24.9104 81L28.3754 75.525L25.1504 70.5H27.2054L29.3054 73.95L31.3904 70.5H33.4604L30.2504 75.525L33.7154 81H31.6454L29.3054 77.1L26.9654 81H24.9104Z" fill="url(#paint1_linear_762_304)"/>
<path d="M12.024 43.12C11.384 43.12 10.884 42.96 10.524 42.64C10.164 42.32 9.908 41.84 9.756 41.2C9.612 40.56 9.54 39.76 9.54 38.8C9.54 37.84 9.612 37.04 9.756 36.4C9.908 35.752 10.164 35.268 10.524 34.948C10.884 34.628 11.384 34.468 12.024 34.468C12.664 34.468 13.16 34.628 13.512 34.948C13.872 35.268 14.124 35.752 14.268 36.4C14.42 37.04 14.496 37.84 14.496 38.8C14.496 39.76 14.42 40.56 14.268 41.2C14.124 41.84 13.872 42.32 13.512 42.64C13.16 42.96 12.664 43.12 12.024 43.12ZM12.024 41.896C12.32 41.896 12.552 41.804 12.72 41.62C12.896 41.428 13.024 41.108 13.104 40.66C13.184 40.212 13.224 39.592 13.224 38.8C13.224 38 13.184 37.376 13.104 36.928C13.024 36.48 12.896 36.164 12.72 35.98C12.552 35.788 12.32 35.692 12.024 35.692C11.728 35.692 11.492 35.788 11.316 35.98C11.14 36.164 11.012 36.48 10.932 36.928C10.86 37.376 10.824 38 10.824 38.8C10.824 39.592 10.86 40.212 10.932 40.66C11.012 41.108 11.14 41.428 11.316 41.62C11.492 41.804 11.728 41.896 12.024 41.896Z" fill="#747474"/>
<defs>
<linearGradient id="paint0_linear_762_304" x1="36.2458" y1="7.06922" x2="-24.6415" y2="94.3053" gradientUnits="userSpaceOnUse">
<stop stop-color="#F96CB8"/>
<stop offset="1" stop-color="#A5EDFD"/>
</linearGradient>
<linearGradient id="paint1_linear_762_304" x1="31" y1="4.60714" x2="-18.257" y2="14.4466" gradientUnits="userSpaceOnUse">
<stop stop-color="#F96CB8"/>
<stop offset="1" stop-color="#A5EDFD"/>
</linearGradient>
</defs>
</svg>

