<svg width="56" height="135" viewBox="0 0 56 135" fill="none" xmlns="http://www.w3.org/2000/svg">
<path d="M4.7313 7.00753L52.7313 25.8647C53.4967 26.1654 54 26.9039 54 27.7262V113.106C54 113.969 53.4457 114.735 52.6255 115.006L4.62551 130.811C3.3318 131.237 2 130.273 2 128.911V95.8839V49.4419V8.86903C2 7.45937 3.41926 6.49208 4.7313 7.00753Z" fill="white"/>
<path d="M4.7313 7.00753L52.7313 25.8647C53.4967 26.1654 54 26.9039 54 27.7262V113.106C54 113.969 53.4457 114.735 52.6255 115.006L4.62551 130.811C3.3318 131.237 2 130.273 2 128.911V95.8839V49.4419V8.86903C2 7.45937 3.41926 6.49208 4.7313 7.00753Z" stroke="black" stroke-width="4"/>
<path d="M4.7313 7.00753L52.7313 25.8647C53.4967 26.1654 54 26.9039 54 27.7262V113.106C54 113.969 53.4457 114.735 52.6255 115.006L4.62551 130.811C3.3318 131.237 2 130.273 2 128.911V95.8839V49.4419V8.86903C2 7.45937 3.41926 6.49208 4.7313 7.00753Z" stroke="url(#paint0_linear_762_309)" stroke-width="4"/>
<path d="M9.25493 24.09C8.90093 24.09 8.56493 24.03 8.24693 23.91C7.92893 23.784 7.64693 23.586 7.40093 23.316L8.03093 22.641C8.36693 23.019 8.79293 23.208 9.30893 23.208C9.55493 23.208 9.73193 23.175 9.83993 23.109C9.95393 23.037 10.0109 22.908 10.0109 22.722C10.0109 22.632 9.98393 22.56 9.92993 22.506C9.87593 22.446 9.77393 22.392 9.62393 22.344C9.47993 22.296 9.26693 22.245 8.98493 22.191C8.56493 22.107 8.22893 21.969 7.97693 21.777C7.72493 21.585 7.59893 21.282 7.59893 20.868C7.59893 20.598 7.67093 20.367 7.81493 20.175C7.95893 19.977 8.15393 19.824 8.39993 19.716C8.64593 19.608 8.91893 19.554 9.21893 19.554C9.55493 19.554 9.86093 19.605 10.1369 19.707C10.4129 19.803 10.6529 19.956 10.8569 20.166L10.2899 20.877C10.1459 20.721 9.98393 20.61 9.80393 20.544C9.62393 20.478 9.43493 20.445 9.23693 20.445C9.01493 20.445 8.85593 20.484 8.75993 20.562C8.66993 20.64 8.62493 20.733 8.62493 20.841C8.62493 20.919 8.64593 20.985 8.68793 21.039C8.73593 21.093 8.82593 21.144 8.95793 21.192C9.08993 21.24 9.28193 21.294 9.53393 21.354C10.0139 21.468 10.3859 21.633 10.6499 21.849C10.9139 22.065 11.0459 22.368 11.0459 22.758C11.0459 23.196 10.8779 23.529 10.5419 23.757C10.2119 23.979 9.78293 24.09 9.25493 24.09ZM12.2964 24V17.583H13.3134V24H12.2964ZM16.6375 24.099C16.2115 24.099 15.8845 24.021 15.6565 23.865C15.4345 23.709 15.3235 23.397 15.3235 22.929V20.544H14.4955V19.671H15.3235V18.15H16.3315V19.671H17.5285V20.544H16.3315V22.668C16.3315 22.872 16.3795 23.01 16.4755 23.082C16.5775 23.154 16.7215 23.19 16.9075 23.19C17.0215 23.19 17.1355 23.172 17.2495 23.136C17.3695 23.1 17.4625 23.064 17.5285 23.028V23.955C17.4205 23.997 17.2855 24.03 17.1235 24.054C16.9615 24.084 16.7995 24.099 16.6375 24.099ZM7.69793 43V38.671H8.61593L8.67893 39.283C8.78693 39.067 8.95493 38.893 9.18293 38.761C9.41693 38.629 9.66293 38.563 9.92093 38.563C10.0229 38.563 10.1159 38.569 10.1999 38.581C10.2839 38.593 10.3559 38.608 10.4159 38.626V39.607C10.3379 39.583 10.2449 39.565 10.1369 39.553C10.0349 39.535 9.91493 39.526 9.77693 39.526C9.48293 39.526 9.23093 39.622 9.02093 39.814C8.81693 40.006 8.71493 40.276 8.71493 40.624V43H7.69793ZM13.4744 43.099C12.8444 43.099 12.3344 42.91 11.9444 42.532C11.5544 42.148 11.3594 41.581 11.3594 40.831C11.3594 40.363 11.4464 39.961 11.6204 39.625C11.7944 39.283 12.0374 39.022 12.3494 38.842C12.6614 38.656 13.0184 38.563 13.4204 38.563C13.8224 38.563 14.1644 38.662 14.4464 38.86C14.7284 39.052 14.9444 39.316 15.0944 39.652C15.2444 39.988 15.3194 40.366 15.3194 40.786V41.02H12.3584C12.3824 41.452 12.4964 41.761 12.7004 41.947C12.9044 42.127 13.1684 42.217 13.4924 42.217C13.7744 42.217 14.0054 42.151 14.1854 42.019C14.3654 41.881 14.5214 41.677 14.6534 41.407L15.4004 41.929C15.1784 42.343 14.9054 42.643 14.5814 42.829C14.2634 43.009 13.8944 43.099 13.4744 43.099ZM12.4034 40.237H14.3204C14.2724 39.955 14.1674 39.739 14.0054 39.589C13.8494 39.433 13.6484 39.355 13.4024 39.355C13.1384 39.355 12.9194 39.427 12.7454 39.571C12.5774 39.715 12.4634 39.937 12.4034 40.237ZM18.5008 44.791C18.0508 44.791 17.6668 44.707 17.3488 44.539C17.0308 44.371 16.7668 44.11 16.5568 43.756L17.3758 43.216C17.4958 43.438 17.6458 43.603 17.8258 43.711C18.0058 43.819 18.2308 43.873 18.5008 43.873C18.8548 43.873 19.1158 43.765 19.2838 43.549C19.4518 43.333 19.5358 42.988 19.5358 42.514V42.271C19.2538 42.565 18.8968 42.712 18.4648 42.712C18.0868 42.712 17.7478 42.634 17.4478 42.478C17.1538 42.316 16.9228 42.082 16.7548 41.776C16.5868 41.464 16.5028 41.083 16.5028 40.633C16.5028 40.177 16.5868 39.796 16.7548 39.49C16.9228 39.184 17.1538 38.953 17.4478 38.797C17.7478 38.641 18.0868 38.563 18.4648 38.563C18.9448 38.563 19.3318 38.734 19.6258 39.076L19.6618 38.671H20.5438V42.514C20.5438 43.228 20.3758 43.786 20.0398 44.188C19.7098 44.59 19.1968 44.791 18.5008 44.791ZM18.5458 41.821C18.8578 41.821 19.1128 41.716 19.3108 41.506C19.5088 41.29 19.6078 40.999 19.6078 40.633C19.6078 40.261 19.5088 39.973 19.3108 39.769C19.1128 39.559 18.8578 39.454 18.5458 39.454C18.2338 39.454 17.9848 39.559 17.7988 39.769C17.6188 39.973 17.5288 40.261 17.5288 40.633C17.5288 40.999 17.6188 41.29 17.7988 41.506C17.9848 41.716 18.2338 41.821 18.5458 41.821ZM9.56093 62.099C9.16493 62.099 8.80793 62.009 8.48993 61.829C8.17793 61.649 7.92893 61.391 7.74293 61.055C7.56293 60.713 7.47293 60.305 7.47293 59.831C7.47293 59.357 7.56293 58.952 7.74293 58.616C7.92893 58.274 8.17793 58.013 8.48993 57.833C8.80793 57.653 9.16493 57.563 9.56093 57.563C10.0169 57.563 10.3919 57.728 10.6859 58.058V55.583H11.7029V62H10.8209L10.7759 61.505C10.6259 61.691 10.4459 61.838 10.2359 61.946C10.0319 62.048 9.80693 62.099 9.56093 62.099ZM9.60593 61.181C9.92393 61.181 10.1879 61.064 10.3979 60.83C10.6079 60.596 10.7129 60.263 10.7129 59.831C10.7129 59.399 10.6079 59.066 10.3979 58.832C10.1879 58.598 9.92393 58.481 9.60593 58.481C9.28793 58.481 9.02393 58.598 8.81393 58.832C8.60393 59.066 8.49893 59.399 8.49893 59.831C8.49893 60.263 8.60393 60.596 8.81393 60.83C9.02393 61.064 9.28793 61.181 9.60593 61.181ZM14.6764 62.063C14.2084 62.081 13.8214 61.979 13.5154 61.757C13.2154 61.535 13.0654 61.214 13.0654 60.794C13.0654 60.488 13.1584 60.227 13.3444 60.011C13.5304 59.795 13.7704 59.627 14.0644 59.507C14.3584 59.381 14.6614 59.315 14.9734 59.309C15.1294 59.297 15.2764 59.309 15.4144 59.345C15.5524 59.381 15.6754 59.432 15.7834 59.498V59.12C15.7834 58.838 15.7234 58.655 15.6034 58.571C15.4834 58.487 15.3064 58.445 15.0724 58.445C14.8204 58.445 14.5534 58.493 14.2714 58.589C13.9954 58.679 13.7584 58.793 13.5604 58.931L13.1014 58.148C13.3474 57.992 13.6444 57.857 13.9924 57.743C14.3404 57.623 14.7004 57.563 15.0724 57.563C15.6304 57.563 16.0504 57.677 16.3324 57.905C16.6144 58.127 16.7554 58.532 16.7554 59.12V61.109C16.7554 61.235 16.7824 61.307 16.8364 61.325C16.8964 61.343 17.0284 61.322 17.2324 61.262V61.901C17.1424 61.943 17.0284 61.979 16.8904 62.009C16.7584 62.045 16.6144 62.063 16.4584 62.063C16.2724 62.063 16.1284 62.033 16.0264 61.973C15.9304 61.907 15.8614 61.799 15.8194 61.649C15.6694 61.775 15.4954 61.874 15.2974 61.946C15.0994 62.012 14.8924 62.051 14.6764 62.063ZM14.6584 61.181C14.9944 61.169 15.2704 61.103 15.4864 60.983C15.7084 60.863 15.8134 60.692 15.8014 60.47C15.7954 60.326 15.7204 60.227 15.5764 60.173C15.4384 60.119 15.2644 60.098 15.0544 60.11C14.7604 60.116 14.5174 60.191 14.3254 60.335C14.1334 60.473 14.0404 60.629 14.0464 60.803C14.0584 61.073 14.2624 61.199 14.6584 61.181ZM20.0125 62.099C19.5865 62.099 19.2595 62.021 19.0315 61.865C18.8095 61.709 18.6985 61.397 18.6985 60.929V58.544H17.8705V57.671H18.6985V56.15H19.7065V57.671H20.9035V58.544H19.7065V60.668C19.7065 60.872 19.7545 61.01 19.8505 61.082C19.9525 61.154 20.0965 61.19 20.2825 61.19C20.3965 61.19 20.5105 61.172 20.6245 61.136C20.7445 61.1 20.8375 61.064 20.9035 61.028V61.955C20.7955 61.997 20.6605 62.03 20.4985 62.054C20.3365 62.084 20.1745 62.099 20.0125 62.099ZM23.5744 62.063C23.1064 62.081 22.7194 61.979 22.4134 61.757C22.1134 61.535 21.9634 61.214 21.9634 60.794C21.9634 60.488 22.0564 60.227 22.2424 60.011C22.4284 59.795 22.6684 59.627 22.9624 59.507C23.2564 59.381 23.5594 59.315 23.8714 59.309C24.0274 59.297 24.1744 59.309 24.3124 59.345C24.4504 59.381 24.5734 59.432 24.6814 59.498V59.12C24.6814 58.838 24.6214 58.655 24.5014 58.571C24.3814 58.487 24.2044 58.445 23.9704 58.445C23.7184 58.445 23.4514 58.493 23.1694 58.589C22.8934 58.679 22.6564 58.793 22.4584 58.931L21.9994 58.148C22.2454 57.992 22.5424 57.857 22.8904 57.743C23.2384 57.623 23.5984 57.563 23.9704 57.563C24.5284 57.563 24.9484 57.677 25.2304 57.905C25.5124 58.127 25.6534 58.532 25.6534 59.12V61.109C25.6534 61.235 25.6804 61.307 25.7344 61.325C25.7944 61.343 25.9264 61.322 26.1304 61.262V61.901C26.0404 61.943 25.9264 61.979 25.7884 62.009C25.6564 62.045 25.5124 62.063 25.3564 62.063C25.1704 62.063 25.0264 62.033 24.9244 61.973C24.8284 61.907 24.7594 61.799 24.7174 61.649C24.5674 61.775 24.3934 61.874 24.1954 61.946C23.9974 62.012 23.7904 62.051 23.5744 62.063ZM23.5564 61.181C23.8924 61.169 24.1684 61.103 24.3844 60.983C24.6064 60.863 24.7114 60.692 24.6994 60.47C24.6934 60.326 24.6184 60.227 24.4744 60.173C24.3364 60.119 24.1624 60.098 23.9524 60.11C23.6584 60.116 23.4154 60.191 23.2234 60.335C23.0314 60.473 22.9384 60.629 22.9444 60.803C22.9564 61.073 23.1604 61.199 23.5564 61.181ZM7.34693 82.791C7.20293 82.791 7.05593 82.782 6.90593 82.764C6.75593 82.746 6.63893 82.725 6.55493 82.701V81.711C6.65693 81.741 6.75593 81.762 6.85193 81.774C6.94193 81.786 7.03493 81.792 7.13093 81.792C7.38293 81.792 7.55093 81.741 7.63493 81.639C7.71893 81.543 7.76093 81.372 7.76093 81.126V76.671H8.76893V81.126C8.76893 81.72 8.65793 82.146 8.43593 82.404C8.21393 82.662 7.85093 82.791 7.34693 82.791ZM8.26493 75.96C8.08493 75.96 7.93193 75.897 7.80593 75.771C7.68593 75.645 7.62593 75.495 7.62593 75.321C7.62593 75.147 7.68593 74.997 7.80593 74.871C7.93193 74.745 8.08493 74.682 8.26493 74.682C8.43893 74.682 8.58593 74.745 8.70593 74.871C8.82593 74.997 8.88593 75.147 8.88593 75.321C8.88593 75.495 8.82593 75.645 8.70593 75.771C8.58593 75.897 8.43893 75.96 8.26493 75.96ZM11.9087 81.099C11.4587 81.099 11.0897 80.955 10.8017 80.667C10.5197 80.379 10.3787 79.953 10.3787 79.389V76.671H11.3957V79.164C11.3957 79.494 11.4647 79.746 11.6027 79.92C11.7467 80.094 11.9327 80.181 12.1607 80.181C12.4187 80.181 12.6287 80.091 12.7907 79.911C12.9527 79.731 13.0337 79.467 13.0337 79.119V76.671H14.0507V81H13.1417L13.0877 80.487C12.9737 80.649 12.8177 80.793 12.6197 80.919C12.4217 81.039 12.1847 81.099 11.9087 81.099ZM15.6028 81V76.671H16.5118L16.5748 77.193C16.6588 77.013 16.7998 76.863 16.9978 76.743C17.1958 76.623 17.4238 76.563 17.6818 76.563C17.9638 76.563 18.2098 76.629 18.4198 76.761C18.6298 76.893 18.7918 77.082 18.9058 77.328C19.0198 77.106 19.1848 76.923 19.4008 76.779C19.6228 76.635 19.8748 76.563 20.1568 76.563C20.5828 76.563 20.9248 76.713 21.1828 77.013C21.4468 77.307 21.5788 77.724 21.5788 78.264V81H20.5528V78.498C20.5528 78.18 20.4958 77.931 20.3818 77.751C20.2678 77.571 20.1088 77.481 19.9048 77.481C19.6468 77.481 19.4458 77.574 19.3018 77.76C19.1638 77.946 19.0948 78.21 19.0948 78.552V81H18.0778V78.498C18.0778 78.18 18.0178 77.931 17.8978 77.751C17.7778 77.571 17.6158 77.481 17.4118 77.481C17.1598 77.481 16.9648 77.577 16.8268 77.769C16.6888 77.955 16.6198 78.216 16.6198 78.552V81H15.6028ZM23.128 82.773V76.671H24.01L24.064 77.148C24.37 76.758 24.772 76.563 25.27 76.563C25.672 76.563 26.029 76.653 26.341 76.833C26.659 77.013 26.908 77.274 27.088 77.616C27.268 77.952 27.358 78.357 27.358 78.831C27.358 79.305 27.268 79.713 27.088 80.055C26.908 80.391 26.659 80.649 26.341 80.829C26.029 81.009 25.672 81.099 25.27 81.099C25.048 81.099 24.841 81.057 24.649 80.973C24.457 80.883 24.289 80.76 24.145 80.604V82.773H23.128ZM25.234 80.181C25.552 80.181 25.816 80.064 26.026 79.83C26.236 79.596 26.341 79.263 26.341 78.831C26.341 78.399 26.236 78.066 26.026 77.832C25.816 77.598 25.552 77.481 25.234 77.481C24.916 77.481 24.652 77.598 24.442 77.832C24.232 78.066 24.127 78.399 24.127 78.831C24.127 79.263 24.232 79.596 24.442 79.83C24.652 80.064 24.916 80.181 25.234 80.181ZM9.15593 100.099C8.70593 100.099 8.33693 99.955 8.04893 99.667C7.76693 99.379 7.62593 98.953 7.62593 98.389V95.671H8.64293V98.164C8.64293 98.494 8.71193 98.746 8.84993 98.92C8.99393 99.094 9.17993 99.181 9.40793 99.181C9.66593 99.181 9.87593 99.091 10.0379 98.911C10.1999 98.731 10.2809 98.467 10.2809 98.119V95.671H11.2979V100H10.3889L10.3349 99.487C10.2209 99.649 10.0649 99.793 9.86693 99.919C9.66893 100.039 9.43193 100.099 9.15593 100.099ZM12.8501 101.773V95.671H13.7321L13.7861 96.148C14.0921 95.758 14.4941 95.563 14.9921 95.563C15.3941 95.563 15.7511 95.653 16.0631 95.833C16.3811 96.013 16.6301 96.274 16.8101 96.616C16.9901 96.952 17.0801 97.357 17.0801 97.831C17.0801 98.305 16.9901 98.713 16.8101 99.055C16.6301 99.391 16.3811 99.649 16.0631 99.829C15.7511 100.009 15.3941 100.099 14.9921 100.099C14.7701 100.099 14.5631 100.057 14.3711 99.973C14.1791 99.883 14.0111 99.76 13.8671 99.604V101.773H12.8501ZM14.9561 99.181C15.2741 99.181 15.5381 99.064 15.7481 98.83C15.9581 98.596 16.0631 98.263 16.0631 97.831C16.0631 97.399 15.9581 97.066 15.7481 96.832C15.5381 96.598 15.2741 96.481 14.9561 96.481C14.6381 96.481 14.3741 96.598 14.1641 96.832C13.9541 97.066 13.8491 97.399 13.8491 97.831C13.8491 98.263 13.9541 98.596 14.1641 98.83C14.3741 99.064 14.6381 99.181 14.9561 99.181ZM18.4065 101.773V95.671H19.2885L19.3425 96.148C19.6485 95.758 20.0505 95.563 20.5485 95.563C20.9505 95.563 21.3075 95.653 21.6195 95.833C21.9375 96.013 22.1865 96.274 22.3665 96.616C22.5465 96.952 22.6365 97.357 22.6365 97.831C22.6365 98.305 22.5465 98.713 22.3665 99.055C22.1865 99.391 21.9375 99.649 21.6195 99.829C21.3075 100.009 20.9505 100.099 20.5485 100.099C20.3265 100.099 20.1195 100.057 19.9275 99.973C19.7355 99.883 19.5675 99.76 19.4235 99.604V101.773H18.4065ZM20.5125 99.181C20.8305 99.181 21.0945 99.064 21.3045 98.83C21.5145 98.596 21.6195 98.263 21.6195 97.831C21.6195 97.399 21.5145 97.066 21.3045 96.832C21.0945 96.598 20.8305 96.481 20.5125 96.481C20.1945 96.481 19.9305 96.598 19.7205 96.832C19.5105 97.066 19.4055 97.399 19.4055 97.831C19.4055 98.263 19.5105 98.596 19.7205 98.83C19.9305 99.064 20.1945 99.181 20.5125 99.181ZM25.853 100.099C25.223 100.099 24.713 99.91 24.323 99.532C23.933 99.148 23.738 98.581 23.738 97.831C23.738 97.363 23.825 96.961 23.999 96.625C24.173 96.283 24.416 96.022 24.728 95.842C25.04 95.656 25.397 95.563 25.799 95.563C26.201 95.563 26.543 95.662 26.825 95.86C27.107 96.052 27.323 96.316 27.473 96.652C27.623 96.988 27.698 97.366 27.698 97.786V98.02H24.737C24.761 98.452 24.875 98.761 25.079 98.947C25.283 99.127 25.547 99.217 25.871 99.217C26.153 99.217 26.384 99.151 26.564 99.019C26.744 98.881 26.9 98.677 27.032 98.407L27.779 98.929C27.557 99.343 27.284 99.643 26.96 99.829C26.642 100.009 26.273 100.099 25.853 100.099ZM24.782 97.237H26.699C26.651 96.955 26.546 96.739 26.384 96.589C26.228 96.433 26.027 96.355 25.781 96.355C25.517 96.355 25.298 96.427 25.124 96.571C24.956 96.715 24.842 96.937 24.782 97.237ZM29.1063 100V95.671H30.0243L30.0873 96.283C30.1953 96.067 30.3633 95.893 30.5913 95.761C30.8253 95.629 31.0713 95.563 31.3293 95.563C31.4313 95.563 31.5243 95.569 31.6083 95.581C31.6923 95.593 31.7643 95.608 31.8243 95.626V96.607C31.7463 96.583 31.6533 96.565 31.5453 96.553C31.4433 96.535 31.3233 96.526 31.1853 96.526C30.8913 96.526 30.6393 96.622 30.4293 96.814C30.2253 97.006 30.1233 97.276 30.1233 97.624V100H29.1063Z" fill="#747474"/>
<defs>
<linearGradient id="paint0_linear_762_309" x1="43.1864" y1="11.3033" x2="-27.9712" y2="114.723" gradientUnits="userSpaceOnUse">
<stop stop-color="#F96CB8"/>
<stop offset="1" stop-color="#A5EDFD"/>
</linearGradient>
</defs>
</svg>
